<?xml version="1.0" encoding="UTF-8" standalone="no"?>
<svg width="138px" height="138px" viewBox="0 0 138 138" version="1.1" xmlns="http://www.w3.org/2000/svg" xmlns:xlink="http://www.w3.org/1999/xlink">
    <!-- Generator: Sketch 3.7 (28169) - http://www.bohemiancoding.com/sketch -->
    <title>Page 1</title>
    <desc>Created with Sketch.</desc>
    <defs>
        <linearGradient x1="25.523991%" y1="3.9232691%" x2="76.5726839%" y2="96.146367%" id="linearGradient-1">
            <stop stop-color="#000000" offset="0%"></stop>
            <stop stop-color="#585757" offset="49.864477%"></stop>
            <stop stop-color="#000000" offset="100%"></stop>
        </linearGradient>
        <path d="M0.854,69.024 C0.854,106.647 31.353,137.146 68.976,137.146 C106.598,137.146 137.098,106.647 137.098,69.024 C137.098,31.401 106.598,0.902 68.976,0.902 C31.353,0.902 0.854,31.401 0.854,69.024 L0.854,69.024 Z" id="path-2"></path>
        <polygon id="path-4" points="137.9516 138 0 138 0 0.0483 137.9516 0.0483"></polygon>
    </defs>
    <g id="Page-1" stroke="none" stroke-width="1" fill="none" fill-rule="evenodd">
        <g transform="translate(0.000000, -1.000000)">
            <g id="Group-3" transform="translate(0.000000, 0.952000)">
                <mask id="mask-3" fill="white">
                    <use xlink:href="#path-2"></use>
                </mask>
                <use id="Clip-2" fill="url(#linearGradient-1)" xlink:href="#path-2"></use>
                <path d="M0.854,69.024 C0.854,106.647 31.353,137.146 68.976,137.146 L68.976,137.146 C106.598,137.146 137.098,106.647 137.098,69.024 L137.098,69.024 C137.098,31.401 106.598,0.902 68.976,0.902 L68.976,0.902 C31.353,0.902 0.854,31.401 0.854,69.024" id="Fill-1" mask="url(#mask-3)"></path>
            </g>
            <g id="Group-19" transform="translate(0.000000, 0.952000)">
                <g id="Group-6">
                    <mask id="mask-5" fill="white">
                        <use xlink:href="#path-4"></use>
                    </mask>
                    <g id="Clip-5"></g>
                    <path d="M68.9756,1.7563 C31.8846,1.7563 1.7076,31.9323 1.7076,69.0243 C1.7076,106.1153 31.8846,136.2923 68.9756,136.2923 C106.0676,136.2923 136.2436,106.1153 136.2436,69.0243 C136.2436,31.9323 106.0676,1.7563 68.9756,1.7563 M68.9756,138.0003 C30.9426,138.0003 -0.0004,107.0573 -0.0004,69.0243 C-0.0004,30.9903 30.9426,0.0483 68.9756,0.0483 C107.0096,0.0483 137.9516,30.9903 137.9516,69.0243 C137.9516,107.0573 107.0096,138.0003 68.9756,138.0003" id="Fill-4" fill="#231F1F" mask="url(#mask-5)"></path>
                </g>
                <path d="M99.5625,69.0239 C99.5625,85.9169 85.8685,99.6099 68.9755,99.6099 C52.0835,99.6099 38.3895,85.9169 38.3895,69.0239 C38.3895,52.1309 52.0835,38.4379 68.9755,38.4379 C85.8685,38.4379 99.5625,52.1309 99.5625,69.0239" id="Fill-7" fill="#000000"></path>
                <path d="M93.7471,69.0239 C93.7471,82.7049 82.6571,93.7949 68.9761,93.7949 C55.2941,93.7949 44.2051,82.7049 44.2051,69.0239 C44.2051,55.3429 55.2941,44.2529 68.9761,44.2529 C82.6571,44.2529 93.7471,55.3429 93.7471,69.0239" id="Fill-9" fill="#CCCCCC"></path>
                <path d="M68.9756,20.3408 C42.1316,20.3408 20.2926,42.1798 20.2926,69.0238 C20.2926,95.8678 42.1316,117.7068 68.9756,117.7068 C95.8196,117.7068 117.6586,95.8678 117.6586,69.0238 C117.6586,42.1798 95.8196,20.3408 68.9756,20.3408 M68.9756,118.4308 C41.7326,118.4308 19.5686,96.2668 19.5686,69.0238 C19.5686,41.7808 41.7326,19.6168 68.9756,19.6168 C96.2186,19.6168 118.3826,41.7808 118.3826,69.0238 C118.3826,96.2668 96.2186,118.4308 68.9756,118.4308" id="Fill-11" fill="#231F1F"></path>
                <path d="M68.9756,30.9507 C47.9816,30.9507 30.9026,48.0307 30.9026,69.0237 C30.9026,90.0187 47.9816,107.0977 68.9756,107.0977 C89.9696,107.0977 107.0486,90.0187 107.0486,69.0237 C107.0486,48.0307 89.9696,30.9507 68.9756,30.9507 M68.9756,107.8047 C47.5926,107.8047 30.1956,90.4077 30.1956,69.0237 C30.1956,47.6407 47.5926,30.2437 68.9756,30.2437 C90.3586,30.2437 107.7546,47.6407 107.7546,69.0237 C107.7546,90.4077 90.3586,107.8047 68.9756,107.8047" id="Fill-13" fill="#231F1F"></path>
                <path d="M78.7803,69.0239 C78.7803,74.4389 74.3903,78.8289 68.9753,78.8289 C63.5603,78.8289 59.1713,74.4389 59.1713,69.0239 C59.1713,63.6089 63.5603,59.2199 68.9753,59.2199 C74.3903,59.2199 78.7803,63.6089 78.7803,69.0239" id="Fill-15" fill="#FFFFFF"></path>
                <path d="M68.9756,10.3428 C36.6186,10.3428 10.2946,36.6668 10.2946,69.0238 C10.2946,101.3808 36.6186,127.7048 68.9756,127.7048 C101.3326,127.7048 127.6576,101.3808 127.6576,69.0238 C127.6576,36.6668 101.3326,10.3428 68.9756,10.3428 M68.9756,128.5778 C36.1376,128.5778 9.4216,101.8628 9.4216,69.0238 C9.4216,36.1858 36.1376,9.4698 68.9756,9.4698 C101.8136,9.4698 128.5296,36.1858 128.5296,69.0238 C128.5296,101.8628 101.8136,128.5778 68.9756,128.5778" id="Fill-17" fill="#231F1F"></path>
            </g>
        </g>
    </g>
</svg>